<svg width="160" height="32" viewBox="0 0 160 32" fill="none" xmlns="http://www.w3.org/2000/svg">
<path d="M155.352 14.0757V24.3669C155.352 25.0837 155.508 25.6085 155.82 25.9413C156.156 26.2485 156.708 26.4021 157.476 26.4021H159.816V30.9333H156.648C152.4 30.9333 150.276 28.7317 150.276 24.3285V14.0757H147.9V9.65973H150.276V4.39893H155.352V9.65973H159.816V14.0757H155.352Z" fill="white"/>
<path d="M5.524 12.7701C6.172 11.7461 7.06001 10.9141 8.188 10.2741C9.34 9.63413 10.648 9.31413 12.112 9.31413C13.816 9.31413 15.352 9.76213 16.72 10.6581C18.112 11.5541 19.204 12.8341 19.996 14.4981C20.812 16.1365 21.22 18.0437 21.22 20.2197C21.22 22.3957 20.812 24.3285 19.996 26.0181C19.204 27.6821 18.112 28.9749 16.72 29.8965C15.352 30.8181 13.816 31.2789 12.112 31.2789C10.624 31.2789 9.316 30.9717 8.188 30.3573C7.084 29.7173 6.196 28.8981 5.524 27.8997V30.9333H0.484009V2.51733H5.524V12.7701ZM16.072 20.2197C16.072 18.9397 15.82 17.8389 15.316 16.9173C14.836 15.9701 14.188 15.2533 13.372 14.7669C12.58 14.2805 11.716 14.0373 10.78 14.0373C9.868 14.0373 9.00401 14.2933 8.188 14.8053C7.39601 15.2917 6.748 16.0085 6.244 16.9557C5.764 17.9029 5.524 19.0165 5.524 20.2965C5.524 21.5765 5.764 22.6901 6.244 23.6373C6.748 24.5845 7.39601 25.3141 8.188 25.8261C9.00401 26.3125 9.868 26.5557 10.78 26.5557C11.716 26.5557 12.58 26.2997 13.372 25.7877C14.188 25.2757 14.836 24.5461 15.316 23.5989C15.82 22.6517 16.072 21.5253 16.072 20.2197Z" fill="white"/>
<path d="M27.4384 7.12536C26.5504 7.12536 25.8064 6.83096 25.2064 6.24216C24.6304 5.62776 24.3424 4.87256 24.3424 3.97656C24.3424 3.08056 24.6304 2.33816 25.2064 1.74936C25.8064 1.13496 26.5504 0.827759 27.4384 0.827759C28.3264 0.827759 29.0584 1.13496 29.6344 1.74936C30.2344 2.33816 30.5344 3.08056 30.5344 3.97656C30.5344 4.87256 30.2344 5.62776 29.6344 6.24216C29.0584 6.83096 28.3264 7.12536 27.4384 7.12536ZM29.9224 9.65976V30.9334H24.8824V9.65976H29.9224Z" fill="white"/>
<path d="M46.71 30.9333L39.942 21.8709V30.9333H34.902V2.51733H39.942V18.6837L46.638 9.65973H53.19L44.406 20.3349L53.262 30.9333H46.71Z" fill="white"/>
<path d="M74.4654 19.8357C74.4654 20.6037 74.4174 21.2949 74.3214 21.9093H59.7414C59.8614 23.4453 60.3654 24.6485 61.2534 25.5189C62.1414 26.3893 63.2334 26.8245 64.5294 26.8245C66.4014 26.8245 67.7334 25.9669 68.5254 24.2517H73.9614C73.3854 26.2997 72.2814 27.9893 70.6494 29.3205C69.0174 30.6261 67.0134 31.2789 64.6374 31.2789C62.7174 31.2789 60.9894 30.8309 59.4534 29.9349C57.9414 29.0133 56.7534 27.7205 55.8894 26.0565C55.0494 24.3925 54.6294 22.4725 54.6294 20.2965C54.6294 18.0949 55.0494 16.1621 55.8894 14.4981C56.7294 12.8341 57.9054 11.5541 59.4174 10.6581C60.9294 9.76209 62.6694 9.31409 64.6374 9.31409C66.5334 9.31409 68.2254 9.74929 69.7134 10.6197C71.2254 11.4901 72.3894 12.7317 73.2054 14.3445C74.0454 15.9317 74.4654 17.7621 74.4654 19.8357ZM69.2454 18.2997C69.2214 16.9173 68.7534 15.8165 67.8414 14.9973C66.9294 14.1525 65.8134 13.7301 64.4934 13.7301C63.2454 13.7301 62.1894 14.1397 61.3254 14.9589C60.4854 15.7525 59.9694 16.8661 59.7774 18.2997H69.2454Z" fill="white"/>
<path d="M76.8482 20.2965C76.8482 18.0949 77.2681 16.1749 78.1081 14.5365C78.9481 12.8725 80.1122 11.5925 81.6002 10.6965C83.0882 9.77489 84.7922 9.31409 86.7122 9.31409C89.1842 9.31409 91.2242 9.97969 92.8322 11.3109C94.4642 12.6165 95.5561 14.4597 96.1081 16.8405H90.6721C90.3841 15.9189 89.8922 15.2021 89.1962 14.6901C88.5242 14.1525 87.6841 13.8837 86.6761 13.8837C85.2361 13.8837 84.0961 14.4469 83.2561 15.5733C82.4161 16.6741 81.9961 18.2485 81.9961 20.2965C81.9961 22.3189 82.4161 23.8933 83.2561 25.0197C84.0961 26.1205 85.2361 26.6709 86.6761 26.6709C88.7161 26.6709 90.0481 25.6981 90.6721 23.7525H96.1081C95.5561 26.0565 94.4642 27.8869 92.8322 29.2437C91.2002 30.6005 89.1602 31.2789 86.7122 31.2789C84.7922 31.2789 83.0882 30.8309 81.6002 29.9349C80.1122 29.0133 78.9481 27.7333 78.1081 26.0949C77.2681 24.4309 76.8482 22.4981 76.8482 20.2965Z" fill="white"/>
<path d="M104.84 12.9621C105.488 11.8357 106.328 10.9525 107.36 10.3125C108.416 9.67254 109.616 9.35254 110.96 9.35254V14.9973H109.628C108.044 14.9973 106.844 15.3941 106.028 16.1877C105.236 16.9813 104.84 18.3637 104.84 20.3349V30.9333H99.8004V9.65974H104.84V12.9621Z" fill="white"/>
<path d="M113.059 20.2197C113.059 18.0693 113.455 16.1621 114.247 14.4981C115.063 12.8341 116.155 11.5541 117.523 10.6581C118.915 9.76209 120.463 9.31409 122.167 9.31409C123.655 9.31409 124.951 9.63409 126.055 10.2741C127.183 10.9141 128.083 11.7205 128.755 12.6933V9.65969H133.831V30.9333H128.755V27.8229C128.107 28.8213 127.207 29.6533 126.055 30.3189C124.927 30.9589 123.619 31.2789 122.131 31.2789C120.451 31.2789 118.915 30.8181 117.523 29.8965C116.155 28.9749 115.063 27.6821 114.247 26.0181C113.455 24.3285 113.059 22.3957 113.059 20.2197ZM128.755 20.2965C128.755 18.9909 128.515 17.8773 128.035 16.9557C127.555 16.0085 126.907 15.2917 126.091 14.8053C125.275 14.2933 124.399 14.0373 123.463 14.0373C122.527 14.0373 121.663 14.2805 120.871 14.7669C120.079 15.2533 119.431 15.9701 118.927 16.9173C118.447 17.8389 118.207 18.9397 118.207 20.2197C118.207 21.4997 118.447 22.6261 118.927 23.5989C119.431 24.5461 120.079 25.2757 120.871 25.7877C121.687 26.2997 122.551 26.5557 123.463 26.5557C124.399 26.5557 125.275 26.3125 126.091 25.8261C126.907 25.3141 127.555 24.5973 128.035 23.6757C128.515 22.7285 128.755 21.6021 128.755 20.2965Z" fill="white"/>
<path d="M147.898 14.0757H144.406V30.9333H139.294V14.0757H137.026V9.6597H139.294V8.5845C139.294 5.9733 139.99 4.0533 141.382 2.8245C142.774 1.5957 144.874 1.0197 147.682 1.0965V5.6277C146.458 5.6021 145.606 5.8197 145.126 6.2805C144.646 6.7413 144.406 7.5733 144.406 8.7765V9.6597H147.898V14.0757Z" fill="white"/>
</svg>
