<svg width="32" height="32" viewBox="0 0 32 32" fill="none" xmlns="http://www.w3.org/2000/svg">
<path d="M31.2512 8C30.252 6.44062 17.9947 0 15.9983 0C14.002 0 1.73984 6.42438 0.74683 8C-0.246185 9.57562 -0.251698 22.425 0.74683 24C1.74536 25.575 14.004 32 15.9983 32C17.9926 32 30.252 25.5675 31.2505 24C32.249 22.4325 32.2504 9.5625 31.2512 8ZM20.1309 25.8888C19.8553 25.8888 17.3118 23.6531 17.5123 23.4706C17.5723 23.4162 17.9437 23.3781 18.7217 23.3563C18.7217 21.7169 18.7624 19.0694 18.7865 17.9613C18.7865 17.8363 18.7562 17.7469 18.7562 17.5956H13.2481C13.2481 18.0394 13.2164 19.8581 13.3425 22.1506C13.3583 22.4344 13.2336 22.5256 12.9469 22.5219C12.2488 22.5219 11.5501 22.515 10.8513 22.5169C10.5688 22.5169 10.4468 22.4213 10.4558 22.135C10.5192 20.045 10.6625 16.885 10.4454 8.84313V8.645C9.77906 8.62313 9.31666 8.5825 9.25602 8.53C9.0548 8.3475 11.6362 6.11188 11.9084 6.11188C12.1806 6.11188 14.7455 8.34812 14.5457 8.53C14.4857 8.58437 14.0013 8.62313 13.39 8.645V8.8425C13.2233 10.4519 13.2522 13.8169 13.2088 15.4294H18.7396C18.7396 15.145 18.7665 13.2581 18.6569 10.2019C18.65 9.99 18.7224 9.87875 18.947 9.87687C19.7099 9.87187 20.4734 9.86875 21.237 9.87313C21.4754 9.87313 21.5519 9.98063 21.5471 10.2094C21.2935 22.165 21.5002 21.3306 21.5002 23.3556C22.1115 23.3775 22.6593 23.4181 22.7193 23.4706C22.9177 23.6525 20.4025 25.8888 20.1296 25.8888H20.1309Z" fill="white"/>
</svg>
